<?xml version="1.0" encoding="utf-8"?>
<!-- Generator: Adobe Illustrator 27.2.0, SVG Export Plug-In . SVG Version: 6.00 Build 0)  -->
<svg version="1.1" id="Camada_1" xmlns="http://www.w3.org/2000/svg" xmlns:xlink="http://www.w3.org/1999/xlink" x="0px" y="0px"
	 viewBox="0 0 50 50" style="enable-background:new 0 0 50 50;" xml:space="preserve">
<style type="text/css">
	.st0{fill-rule:evenodd;clip-rule:evenodd;fill:#FFFFFF;}
</style>
<g>
	<path id="Caminho_781" class="st0" d="M25,15.6c-2.7,0-4.9,2.2-4.9,4.9c0,2.7,2.2,4.9,4.9,4.9c2.7,0,4.9-2.2,4.9-4.9c0,0,0,0,0,0
		C29.9,17.8,27.7,15.6,25,15.6C25,15.6,25,15.6,25,15.6"/>
	<path id="Caminho_782" class="st0" d="M37.4,0H12.7C5.7,0,0,5.7,0,12.6c0,0,0,0,0,0v24.7C0,44.3,5.7,50,12.7,50h24.7
		c7,0,12.7-5.7,12.7-12.7V12.7C50,5.7,44.3,0,37.4,0 M25,41.3c0,0-12.4-13.4-12.4-20.2c0-6.9,5.6-12.4,12.4-12.4s12.4,5.6,12.4,12.4
		C37.4,28,25,41.3,25,41.3"/>
</g>
</svg>
