<?xml version="1.0" encoding="utf-8"?>
<!-- Generator: Adobe Illustrator 27.2.0, SVG Export Plug-In . SVG Version: 6.00 Build 0)  -->
<svg version="1.1" id="Camada_1" xmlns="http://www.w3.org/2000/svg" xmlns:xlink="http://www.w3.org/1999/xlink" x="0px" y="0px"
	 viewBox="0 0 20 20" style="enable-background:new 0 0 20 20;" xml:space="preserve">
<style type="text/css">
	.st0{fill-rule:evenodd;clip-rule:evenodd;fill:#FBA422;}
</style>
<path id="Caminho_38" class="st0" d="M9,0.8c0.2-0.6,0.8-0.9,1.3-0.7c0.3,0.1,0.6,0.4,0.7,0.7l1.9,6h6c0.6,0,1.1,0.5,1.1,1.1
	c0,0.4-0.2,0.8-0.5,1l-4.8,3.7l1.9,6c0.2,0.6-0.1,1.2-0.7,1.4c-0.3,0.1-0.7,0.1-1-0.2L10,16l-4.8,3.7C4.7,20.1,4,20,3.6,19.5
	c-0.2-0.3-0.3-0.7-0.2-1l1.9-6L0.5,8.8C0,8.5-0.2,7.8,0.2,7.2c0.2-0.3,0.6-0.5,0.9-0.5h6L9,0.8z"/>
</svg>
