<?xml version="1.0" encoding="utf-8"?>
<!-- Generator: Adobe Illustrator 27.2.0, SVG Export Plug-In . SVG Version: 6.00 Build 0)  -->
<svg version="1.1" id="Camada_1" xmlns="http://www.w3.org/2000/svg" xmlns:xlink="http://www.w3.org/1999/xlink" x="0px" y="0px"
	 viewBox="0 0 50 50" style="enable-background:new 0 0 50 50;" xml:space="preserve">
<style type="text/css">
	.st0{fill-rule:evenodd;clip-rule:evenodd;fill:#FFFFFF;}
</style>
<path id="Caminho_783" class="st0" d="M37.3,0H12.7C5.7,0,0,5.7,0,12.7v24.7C0,44.3,5.7,50,12.7,50h8.5V32.1h-6.3V25h6.3v-5.4
	c0-6.2,3.7-9.6,9.3-9.6c1.9,0,3.7,0.2,5.5,0.5v6.1h-3.1c-2-0.3-3.7,1.1-4,3.1c0,0.3,0,0.5,0,0.8V25h6.8l-1.1,7.1h-5.8V50h0h8.5
	c7,0,12.7-5.7,12.7-12.7l0,0V12.7C50,5.7,44.3,0,37.3,0L37.3,0"/>
</svg>
