<?xml version="1.0" encoding="utf-8"?>
<!-- Generator: Adobe Illustrator 27.2.0, SVG Export Plug-In . SVG Version: 6.00 Build 0)  -->
<svg version="1.1" id="Camada_1" xmlns="http://www.w3.org/2000/svg" xmlns:xlink="http://www.w3.org/1999/xlink" x="0px" y="0px"
	 viewBox="0 0 750 91.7" style="enable-background:new 0 0 750 91.7;" xml:space="preserve">
<style type="text/css">
	.st0{fill:#F7A833;}
	.st1{fill:#191919;}
</style>
<g>
	<g>
		<path class="st0" d="M28.2,20.6H0V0h82.2v20.6h-28v71.2H28.2V20.6z"/>
		<path class="st0" d="M127.8,67.4h-14.2v24.4H87.7V0h41.9c8.3,0,15.5,1.4,21.6,4.1c6.1,2.8,10.8,6.7,14.2,11.8c3.3,5.1,5,11.1,5,18
			c0,6.6-1.6,12.4-4.7,17.4c-3.1,4.9-7.5,8.8-13.3,11.6l19.8,28.8h-27.8L127.8,67.4z M140.2,24c-2.7-2.4-6.7-3.5-12.1-3.5h-14.4
			v26.9h14.4c5.3,0,9.3-1.2,12.1-3.5c2.7-2.3,4.1-5.6,4.1-9.9C144.2,29.7,142.9,26.3,140.2,24z"/>
		<path class="st0" d="M250.3,73.9h-38.8l-7.2,17.8h-26.5L218.3,0h25.6l40.6,91.7h-27L250.3,73.9z M242.7,54.8l-11.8-29.4
			l-11.8,29.4H242.7z"/>
	</g>
	<path class="st0" d="M289.1,20.6H261V0h82.2v20.6h-28v71.2h-25.9V20.6z"/>
	<path class="st0" d="M483.8,67.4h-14.2v24.4h-25.9V0h41.9c8.3,0,15.5,1.4,21.6,4.1c6.1,2.8,10.8,6.7,14.2,11.8c3.3,5.1,5,11.1,5,18
		c0,6.6-1.6,12.4-4.7,17.4c-3.1,4.9-7.5,8.8-13.3,11.6l19.8,28.8h-27.8L483.8,67.4z M496.2,24c-2.7-2.4-6.7-3.5-12.1-3.5h-14.4v26.9
		h14.4c5.3,0,9.3-1.2,12.1-3.5c2.7-2.3,4.1-5.6,4.1-9.9C500.2,29.7,498.9,26.3,496.2,24z"/>
	<path class="st1" d="M533.8,0h25.9v91.7h-25.9V0z"/>
	<path class="st1" d="M652.6,0v91.7h-21.4l-40.5-48.9v48.9h-25.4V0h21.4l40.5,48.9V0H652.6z"/>
	<g>
		<circle class="st0" cx="390.1" cy="45.7" r="35.9"/>
		<g>
			<path class="st1" d="M367.5,34.5c1.8-0.2,3.1-1.8,2.9-3.6c-0.2-1.8-1.9-3-3.8-2.7c-1.9,0.2-3.2,1.9-2.9,3.6
				C363.9,33.5,365.6,34.7,367.5,34.5z"/>
			<path class="st1" d="M381.5,22.6c2.1-0.1,3.3-1.3,3.2-3.3c-0.1-2.1-1.4-3.2-3.4-3.1c-2,0.1-3.2,1.5-3,3.5
				C378.6,21.6,379.7,22.7,381.5,22.6z"/>
			<path class="st1" d="M400.7,22.9c1.9-0.2,3-1.7,2.8-3.6c-0.2-1.9-1.8-3.2-3.6-2.9c-1.9,0.2-3,1.8-2.8,3.7
				C397.3,22,398.7,23.1,400.7,22.9z"/>
			<path class="st1" d="M363.3,46.5c-2,0.2-3.1,1.5-2.9,3.5c0.2,1.9,1.3,2.9,3.2,2.9c2.1,0,3.3-1.3,3.1-3.3
				C366.6,47.5,365.3,46.4,363.3,46.5z"/>
			<path class="st1" d="M393.5,88.5c0-0.1,0.1-0.1,0.1-0.2c-0.1,0.1-0.2,0.3-0.3,0.4C393.3,88.7,393.4,88.6,393.5,88.5z"/>
			<path class="st1" d="M389.8,69.3c-1.7,0.3-2.9,2-2.7,3.9c0.3,2,1.7,3.1,3.6,2.9c1.9-0.3,2.9-1.7,2.7-3.7
				C393.2,70.5,391.5,69,389.8,69.3z"/>
			<path class="st1" d="M417.7,31.6c-0.2-1.9-1.7-3.3-3.5-3.1c-1.7,0.2-3.1,1.9-2.9,3.7c0.2,1.9,1.7,3.2,3.5,3.1
				C416.6,35.1,417.9,33.5,417.7,31.6z"/>
			<path class="st1" d="M417.3,47c-1.8,0.1-3.2,1.7-3.1,3.6c0.1,1.9,1.6,3.2,3.5,3.1c1.9-0.1,3.2-1.6,3.1-3.5
				C420.7,48.5,419,46.9,417.3,47z"/>
			<path class="st1" d="M372.4,62.7c-1.8,0.2-3.1,1.8-2.9,3.7c0.2,1.8,1.9,3.3,3.6,3.1c1.7-0.2,3.2-2.1,3-3.7
				C375.9,64,374.1,62.6,372.4,62.7z"/>
			<path class="st1" d="M388.1,26.2c-10.7,1.1-18.5,10.7-17.4,21.5c1.1,10.8,10.6,18.5,21.4,17.5c10.7-1.1,18.5-10.7,17.3-21.5
				C408.3,32.8,398.8,25,388.1,26.2z"/>
			<path class="st1" d="M407.7,63.2c-1.9,0.2-3.2,1.7-3.1,3.6c0.2,1.8,1.9,3.2,3.6,3.1c1.8-0.1,3.2-1.8,3-3.6
				C411.1,64.4,409.6,63.1,407.7,63.2z"/>
			<path class="st1" d="M431.1,37.1c0.2-0.4,0.7-0.6,1-0.8c2.8-1.8,3.5-3,2.4-5.3c0,0,0,0,0,0c-0.2-0.4-0.5-0.8-0.8-1.3
				c-1.5-2.2-3.1-4.4-4.8-6.5c-0.6-0.7-1.5-1.5-2.3-1.8c-0.1,0-0.2,0-0.3,0c-0.7,0-1.2-0.1-1.7-0.2c-0.7-0.2-1.3-0.4-1.8-0.9
				c-0.5-0.5-1.1-1.3-1.3-2c-0.3-0.9,0.3-1.5,0.7-2.3c0,0,0,0,0,0c1.5-3.1,0.9-4.4-2.3-6c-2.3-1.1-4.6-2.3-7-3.1
				c-1.3-0.4-3.2-0.8-4.2-0.1c-0.7,0.4-1.4,0.7-2.2,0.7c-0.8,0-1.4-0.4-2.1-0.7c-0.4-0.2-0.7-0.4-1-0.7c-0.4-0.4-0.3-1-0.3-1.5
				c0-0.6,0-1.2-0.1-1.8c0,0,0,0,0,0c-0.4-2.5-1.4-3.1-4.4-2.8c-2.8,0.2-5.6,0.5-8.4,0.9c-0.8,0.1-1.9,0.4-2.6,0.9c0,0,0,0,0,0
				c-0.2,0.2-0.4,0.3-0.5,0.5c-0.3,0.5-0.5,1-0.9,1.3c-0.5,0.6-1.2,0.9-1.9,1.1c-0.8,0.2-1.7,0.3-2.4,0c-0.6-0.3-0.7-0.8-1-1.3
				c-0.5-0.8-1-1.4-1.4-1.9c0,0,0,0,0,0c-1.4-1.3-2.7-1.1-5,0.5c-1.5,1-3,2-4.4,3.1c-0.6,0.4-1.2,0.9-1.8,1.4
				c-0.1,0.1-0.2,0.1-0.3,0.2c-0.7,0.6-1.7,1.6-1.8,2.5c0.1-0.2,0.1-0.3,0.2-0.5c-0.1,0.2-0.2,0.3-0.2,0.5c-0.1,0.3-0.2,0.6-0.2,0.9
				c0.1,1-0.1,1.9-0.8,2.7c-0.3,0.3-0.6,0.6-0.9,0.8c-0.5,0.3-1,0.8-1.6,0.8c-0.6,0-1.1-0.4-1.5-0.6c-0.5-0.3-1-0.5-1.5-0.7
				c-2.3-1-3.4-0.2-4.8,2.8c-0.2,0.4-0.4,0.8-0.6,1.2c-0.8,1.6-1.5,3.2-2.2,4.8c-0.1,0.3-0.2,0.6-0.4,1c-0.4,1.3-0.8,3.2-0.1,4.2
				c0.3,0.5,0.5,0.9,0.6,1.3c0.1,0.4,0.1,0.8,0.1,1.2c-0.2,0.5-0.3,1.1-0.6,1.6c-0.2,0.5-0.4,1-0.8,1.4c-0.3,0.2-0.7,0.3-1,0.4
				c-0.5,0.1-1,0-1.5,0c-0.5,0-0.9,0.1-1.4,0.2c-0.7,0.2-1.3,0.4-1.7,1c0,0-0.1,0.1-0.1,0.1c-0.4,0.7-0.4,1.7-0.3,3.1
				c0.2,2.8,0.5,5.6,0.9,8.4c0.2,1.1,0.6,2.7,1.4,3.1c0.8,0.4,1.5,0.9,2,1.7c0.4,0.7,0.5,1.5,0.5,2.3c0,0.4,0.1,1-0.2,1.3
				c-0.3,0.4-0.9,0.6-1.3,0.8c-0.6,0.4-1.1,0.7-1.6,1.2c-0.5,0.4-0.9,0.9-1.1,1.6c-0.4,1.3,0.5,2.7,1.2,3.7c1.5,2.2,3,4.5,4.7,6.5
				c0.6,0.7,1.4,1.5,2.3,1.8c0.5,0.2,0.8,0.1,1.3,0.2c0.6,0,1.1,0.2,1.6,0.4c0.1,0.1,0.2,0.1,0.3,0.2c0.4,0.2,0.8,0.6,1.1,1
				c0.3,0.3,0.5,0.6,0.7,1c0.2,0.3,0.5,0.6,0.5,1c0,0.3-0.2,0.5-0.3,0.7c-0.2,0.3-0.3,0.6-0.5,0.9c-0.1,0.2-0.2,0.4-0.3,0.6
				c-0.1,0.1-0.3,0.5-0.3,0.6c-0.3,0.7-0.6,1.5-0.4,2.2c0.2,1,1.2,1.6,2,2.1c1,0.6,2.1,1.2,3.2,1.7c1.1,0.5,2.2,1,3.3,1.5
				c0.3,0.1,0.7,0.3,1,0.3c0.8,0.2,1.6,0.4,2.4,0.6c0.6,0.1,1.3,0.2,1.9,0.1c0.6-0.1,1.1-0.6,1.6-0.8c0.8-0.3,1.7-0.1,2.5,0.2
				c0.4,0.2,0.8,0.4,1.2,0.6c0.3,0.2,0.8,0.4,0.8,0.8c0.1,0.5,0.1,0.8,0.1,1.1c0,2.6,0.5,4,1.9,4.5c0.7,0.2,1.6,0.2,2.7,0.2
				c0.6,0,1.3,0,1.9-0.1c2-0.2,4.1-0.3,6.1-0.7c0.2,0,0.4-0.1,0.7-0.1c0.7-0.2,1.4-0.5,2-0.9c0.7-0.5,1-1.2,1.6-1.8
				c0.7-0.7,1.6-1.1,2.5-1.2c0.7-0.1,1.4-0.3,2,0.3c0.4,0.3,0.7,0.8,0.9,1.3c0.3,0.4,0.6,0.8,0.9,1.2c0.4,0.5,1,1.1,1.7,1.3
				c1,0.3,2-0.1,2.9-0.5c0,0,0,0,0.1,0l3.3-2.2c0.1-0.1,0.2-0.1,0.3-0.2c1.3-0.9,2.6-1.9,3.8-2.9c0.2-0.1,0.3-0.3,0.5-0.4
				c0.6-0.6,1.1-1.2,1.4-2c0.1-0.4,0.1-0.9,0.1-1.3c0.1-0.5,0.2-0.9,0.4-1.4c0,0,0,0,0,0c0.3-0.8,0.9-1.4,1.6-1.9
				c0.2-0.2,0.5-0.3,0.7-0.5c0.2-0.1,0.5-0.3,0.8-0.4c0.4,0,0.8,0.3,1.1,0.5c0.4,0.3,0.9,0.5,1.3,0.7c0.6,0.3,1.4,0.2,2.1,0.2
				c0.6,0,1.4-0.1,1.8-0.6c0.8-1.1,1.5-2.2,2.1-3.3c0,0,0,0,0,0c1-2.2,2.1-4.4,2.7-6.8c0.1-0.3,0.1-0.6,0.2-0.9
				c0.1-0.7,0.4-1.5-0.1-2.1c-0.4-0.6-0.7-1.2-0.8-2l0,0c-0.1-1,0.3-1.9,0.7-2.8c0.2-0.4,0.4-0.8,0.8-1c0.4-0.2,0.8-0.2,1.1-0.2
				c0.4,0,0.8,0,1.2,0c0.4,0,0.8-0.1,1.2-0.1c0.3-0.1,0.6-0.2,0.9-0.3c0.4-0.2,0.7-0.5,1-0.8c0,0,0,0,0-0.1c0.4-0.8,0.5-1.9,0.4-3.6
				c-0.2-2.7-0.4-5.4-0.9-8c-0.1-0.5-0.3-1.1-0.5-1.7c0,0,0,0,0-0.1c-0.2-0.4-0.5-0.8-0.8-1.1c-0.1-0.1-0.2-0.1-0.2-0.2
				c-0.7-0.4-1.4-0.9-1.8-1.6c-0.2-0.4-0.4-0.8-0.4-1.2c-0.1-0.5-0.2-1-0.2-1.5C430.8,37.9,430.9,37.5,431.1,37.1z M423.8,52.2
				c0,0.1,0,0.2-0.1,0.3c-2.6,12.8-12.8,24.5-28,26.9c-0.7,0.1-1.5,0.2-2.2,0.3c-0.6,0.1-1.1,0.1-1.7,0.1c-0.1,0-0.2,0-0.2,0
				c-15.8,1.1-32.6-10.4-35.4-29.1c0-0.2-0.1-0.4-0.1-0.6c-0.1-0.4-0.1-0.8-0.1-1.2c-0.1-0.7-0.1-1.3-0.1-1.9c0-0.2,0-0.4,0-0.6
				c-0.2-8.1,2.3-15.2,6.4-20.8c0,0,0-0.1,0.1-0.1c4.5-6.4,11.3-11.4,20.1-13.3c1.3-0.3,2.7-0.5,4.1-0.7c0.6-0.1,1.3-0.1,1.9-0.2
				c19.5-1.1,33.9,13.8,35.6,29.7l0,0c0,0.4,0.1,0.8,0.1,1.2c0.1,0.7,0.2,1.4,0.2,2.1C424.4,47.1,424.2,49.7,423.8,52.2z"/>
		</g>
	</g>
	<g>
		<circle class="st0" cx="704.1" cy="45.9" r="35.8"/>
		<g>
			<path class="st1" d="M698.1,22.2c2.1,0.2,3.4-1,3.5-3c0.1-2-1-3.3-3-3.4c-2-0.1-3.3,1.2-3.3,3.2
				C695.2,20.9,696.3,22.1,698.1,22.2z"/>
			<path class="st1" d="M682.9,32.5c1.8,0,3.3-1.5,3.2-3.3c-0.1-1.8-1.6-3.1-3.5-3.1c-1.9,0.1-3.3,1.6-3.3,3.3
				C679.5,31.2,681,32.5,682.9,32.5z"/>
			<path class="st1" d="M717,24.4c1.9,0,3.2-1.4,3.2-3.3c0-1.9-1.4-3.3-3.2-3.3c-1.9,0.1-3.2,1.5-3.1,3.4
				C713.8,23.2,715,24.4,717,24.4z"/>
			<path class="st1" d="M703.2,88.7c0-0.1,0.1-0.1,0.1-0.2c-0.1,0.1-0.2,0.3-0.3,0.4C703,88.8,703.1,88.8,703.2,88.7z"/>
			<path class="st1" d="M677.6,44c-2,0-3.2,1.2-3.3,3.2c0,1.9,1,3,2.8,3.2c2.1,0.2,3.4-0.9,3.5-2.9C680.7,45.4,679.5,44.1,677.6,44z
				"/>
			<path class="st1" d="M704.2,26.4c-10.7,0-19.4,8.7-19.4,19.5c0,10.8,8.6,19.4,19.4,19.5c10.7,0,19.4-8.7,19.3-19.5
				C723.5,35,714.9,26.3,704.2,26.4z"/>
			<path class="st1" d="M726.6,34.6c0,1.9,1.3,3.4,3.1,3.4c1.8,0,3.2-1.4,3.2-3.3c0-1.9-1.4-3.4-3.1-3.5
				C728.1,31.3,726.6,32.8,726.6,34.6z"/>
			<path class="st1" d="M684.9,61c-1.8,0-3.3,1.5-3.3,3.4c0,1.8,1.6,3.4,3.3,3.4c1.7,0,3.3-1.7,3.4-3.4
				C688.3,62.6,686.7,61,684.9,61z"/>
			<path class="st1" d="M727.6,53.2c-0.1,1.9,1.2,3.3,3.1,3.4c1.9,0.1,3.4-1.3,3.4-3.1c0.1-1.7-1.5-3.4-3.2-3.5
				C729.2,49.9,727.7,51.4,727.6,53.2z"/>
			<path class="st1" d="M719.8,65.1c-1.9,0-3.4,1.4-3.4,3.2c0,1.8,1.5,3.4,3.2,3.4c1.8,0,3.3-1.5,3.4-3.3
				C723.1,66.6,721.7,65.1,719.8,65.1z"/>
			<path class="st1" d="M701.5,69.3c-1.7,0.1-3.1,1.7-3,3.5c0.1,2,1.3,3.3,3.3,3.2c1.9-0.1,3.1-1.4,3-3.4
				C704.7,70.8,703.2,69.2,701.5,69.3z"/>
			<path class="st1" d="M745.7,41.6c0.3-0.3,0.7-0.5,1.1-0.7c3-1.5,3.8-2.7,2.9-5c0,0,0,0,0,0c-0.2-0.4-0.4-0.9-0.7-1.4
				c-1.3-2.3-2.6-4.7-4.1-6.9c-0.5-0.7-1.3-1.6-2.1-2c-0.1,0-0.2,0-0.3-0.1c-0.6-0.1-1.2-0.2-1.7-0.4c-0.7-0.3-1.2-0.5-1.7-1.1
				c-0.5-0.6-0.9-1.4-1.1-2.1c-0.3-0.9,0.5-1.5,0.9-2.2c0,0,0,0,0,0c1.8-2.9,1.4-4.3-1.6-6.2c-2.2-1.3-4.3-2.7-6.6-3.8
				c-1.2-0.6-3.1-1.1-4.1-0.6c-0.7,0.3-1.5,0.5-2.3,0.4c-0.8-0.1-1.4-0.5-2.1-0.9c-0.3-0.2-0.7-0.4-0.9-0.8c-0.3-0.5-0.2-1-0.2-1.5
				c0.1-0.6,0.1-1.2,0.1-1.7c0,0,0,0,0,0c-0.1-2.5-1.1-3.2-4.1-3.3c-2.8-0.1-5.6-0.1-8.4,0c-0.8,0-2,0.2-2.7,0.6c0,0,0,0,0,0
				c-0.2,0.1-0.4,0.3-0.5,0.5c-0.3,0.5-0.6,0.9-1,1.2c-0.6,0.5-1.3,0.8-2,0.9c-0.8,0.1-1.7,0.1-2.4-0.3c-0.5-0.3-0.6-0.9-0.9-1.4
				c-0.4-0.9-0.8-1.5-1.2-2c0,0,0,0,0,0c-1.2-1.5-2.6-1.4-5-0.1c-1.6,0.8-3.2,1.7-4.7,2.6c-0.6,0.4-1.3,0.8-2,1.2
				C686.2,4.9,686,5,685.9,5c-0.8,0.5-1.8,1.4-2.1,2.3c-0.1,0.3-0.2,0.6-0.3,0.9c0,1-0.3,1.9-1,2.6c-0.3,0.3-0.6,0.5-1,0.7
				c-0.5,0.3-1.1,0.7-1.7,0.6c-0.6-0.1-1-0.5-1.5-0.8c-0.5-0.3-0.9-0.6-1.4-0.8c-2.2-1.2-3.3-0.5-5.1,2.3c-0.2,0.4-0.5,0.8-0.7,1.2
				c-0.9,1.5-1.8,3-2.6,4.5c-0.2,0.3-0.3,0.6-0.4,0.9c-0.6,1.2-1.1,3.1-0.6,4.1c0.2,0.5,0.4,0.9,0.4,1.4c0.1,0.4,0,0.8-0.1,1.2
				c-0.2,0.5-0.5,1-0.7,1.5c-0.3,0.5-0.5,1-1,1.3c-0.3,0.2-0.7,0.3-1,0.3c-0.5,0-1-0.1-1.5-0.1c-0.5,0-0.9,0-1.4,0.1
				c-0.7,0.1-1.3,0.3-1.8,0.8c0,0-0.1,0.1-0.1,0.1c-0.4,0.6-0.6,1.6-0.6,3c-0.1,2.8-0.1,5.6,0,8.4c0.1,1.1,0.3,2.7,1.1,3.2
				c0.8,0.5,1.4,1.1,1.8,1.9c0.3,0.7,0.4,1.6,0.3,2.4c0,0.4,0,1-0.3,1.3c-0.3,0.4-0.9,0.5-1.4,0.7c-0.6,0.3-1.2,0.6-1.7,1
				c-0.5,0.4-1,0.8-1.3,1.4c-0.5,1.3,0.3,2.7,0.9,3.8c1.3,2.4,2.5,4.7,4,7c0.5,0.8,1.3,1.6,2.1,2c0.4,0.2,0.8,0.2,1.3,0.3
				c0.5,0.1,1.1,0.3,1.5,0.6c0.1,0.1,0.2,0.1,0.3,0.2c0.4,0.3,0.7,0.7,1,1.1c0.2,0.3,0.4,0.7,0.6,1c0.2,0.3,0.4,0.7,0.4,1.1
				c0,0.3-0.2,0.5-0.4,0.7c-0.2,0.3-0.4,0.6-0.6,0.9c-0.1,0.2-0.2,0.3-0.4,0.5c-0.1,0.1-0.3,0.4-0.3,0.6c-0.4,0.7-0.7,1.4-0.6,2.2
				c0.1,1,1,1.7,1.8,2.3c1,0.7,2,1.4,3,2c1,0.6,2,1.3,3.1,1.8c0.3,0.1,0.7,0.4,1,0.4c0.7,0.3,1.5,0.6,2.3,0.8
				c0.6,0.2,1.3,0.3,1.9,0.3c0.6-0.1,1.1-0.5,1.7-0.6c0.8-0.2,1.7,0.1,2.4,0.4c0.4,0.2,0.8,0.4,1.1,0.7c0.3,0.2,0.7,0.5,0.7,0.9
				c0,0.5,0,0.8,0,1.1c-0.3,2.6,0.1,4,1.4,4.7c0.6,0.3,1.5,0.4,2.7,0.5c0.6,0,1.3,0.1,1.9,0.1c2,0,4.1,0.1,6.1-0.1
				c0.2,0,0.4,0,0.7-0.1c0.7-0.1,1.5-0.4,2.1-0.7c0.7-0.4,1.1-1.1,1.8-1.7c0.7-0.6,1.7-0.9,2.6-0.9c0.7,0,1.4-0.1,1.9,0.5
				c0.4,0.4,0.6,0.9,0.8,1.4c0.2,0.4,0.5,0.9,0.7,1.3c0.4,0.6,0.9,1.1,1.5,1.5c0.9,0.4,2,0.1,2.9-0.2c0,0,0,0,0.1,0l3.4-1.8
				c0.1-0.1,0.2-0.1,0.3-0.2c1.4-0.8,2.8-1.6,4.1-2.5c0.2-0.1,0.4-0.2,0.5-0.4c0.6-0.5,1.2-1.1,1.6-1.8c0.2-0.4,0.2-0.8,0.3-1.3
				c0.1-0.5,0.3-0.9,0.5-1.3c0,0,0,0,0,0c0.4-0.7,1.1-1.3,1.8-1.7c0.3-0.2,0.5-0.3,0.8-0.4c0.2-0.1,0.5-0.3,0.8-0.3
				c0.4,0,0.8,0.4,1.1,0.6c0.4,0.3,0.8,0.6,1.2,0.8c0.6,0.4,1.4,0.4,2,0.4c0.6,0,1.4,0.1,1.8-0.4c0.9-1,1.7-2,2.4-3c0,0,0,0,0,0
				c1.2-2.1,2.6-4.1,3.4-6.4c0.1-0.3,0.2-0.6,0.3-0.9c0.2-0.7,0.5-1.4,0.2-2.1c-0.3-0.6-0.6-1.3-0.6-2v0c0-1,0.5-1.8,1-2.7
				c0.2-0.4,0.5-0.7,0.9-0.9c0.4-0.2,0.8-0.1,1.2-0.1c0.4,0.1,0.8,0.1,1.2,0.1c0.4,0,0.8,0,1.2,0c0.3,0,0.6-0.1,0.9-0.2
				c0.4-0.1,0.8-0.4,1.1-0.7c0,0,0,0,0-0.1c0.5-0.7,0.7-1.9,0.7-3.5c0.1-2.7,0.1-5.4-0.1-8c0-0.5-0.1-1.1-0.3-1.7c0,0,0,0,0-0.1
				c-0.2-0.4-0.4-0.9-0.7-1.2c-0.1-0.1-0.1-0.1-0.2-0.2c-0.7-0.4-1.3-1-1.7-1.7c-0.2-0.4-0.3-0.8-0.3-1.3c0-0.5-0.1-1-0.1-1.5
				C745.3,42.3,745.4,41.9,745.7,41.6z M738.2,44.8c0,0.4,0,0.8,0,1.2c0,0.7,0,1.4,0,2.1c-0.2,2.7-0.6,5.2-1.3,7.6
				c0,0.1-0.1,0.2-0.1,0.3c-3.8,12.4-15.2,23-30.5,23.8c-0.7,0-1.5,0.1-2.3,0.1c-0.6,0-1.1,0-1.7-0.1c-0.1,0-0.2,0-0.2,0
				c-15.8-0.5-31.3-13.6-32.1-32.4c0-0.2,0-0.4,0-0.6c0-0.4,0-0.8,0-1.2c0-0.7,0-1.3,0.1-1.9c0-0.2,0-0.4,0-0.6
				c0.6-8,3.8-14.8,8.4-20c0,0,0.1-0.1,0.1-0.1c5.1-5.8,12.3-10.1,21.3-11.2c1.4-0.2,2.7-0.2,4.2-0.3c0.6,0,1.3,0,1.9,0
				C725.5,12.7,738.1,28.9,738.2,44.8L738.2,44.8z"/>
		</g>
	</g>
</g>
</svg>
