<?xml version="1.0" encoding="utf-8"?>
<!-- Generator: Adobe Illustrator 27.2.0, SVG Export Plug-In . SVG Version: 6.00 Build 0)  -->
<svg version="1.1" id="Camada_1" xmlns="http://www.w3.org/2000/svg" xmlns:xlink="http://www.w3.org/1999/xlink" x="0px" y="0px"
	 viewBox="0 0 33 25" style="enable-background:new 0 0 33 25;" xml:space="preserve">
<style type="text/css">
	.st0{fill:#F8A933;}
</style>
<g id="Componente_38_2" transform="translate(1.5 1.5)">
	<g id="Linha_555">
		<path class="st0" d="M30,12.5H0c-0.8,0-1.5-0.7-1.5-1.5S-0.8,9.5,0,9.5h30c0.8,0,1.5,0.7,1.5,1.5S30.8,12.5,30,12.5z"/>
	</g>
	<g id="Linha_556">
		<path class="st0" d="M30,1.5H0c-0.8,0-1.5-0.7-1.5-1.5S-0.8-1.5,0-1.5h30c0.8,0,1.5,0.7,1.5,1.5S30.8,1.5,30,1.5z"/>
	</g>
	<g id="Linha_557">
		<path class="st0" d="M30,23.5H0c-0.8,0-1.5-0.7-1.5-1.5s0.7-1.5,1.5-1.5h30c0.8,0,1.5,0.7,1.5,1.5S30.8,23.5,30,23.5z"/>
	</g>
</g>
</svg>
